# File created by Blade
# Date/Time:  Thu Jan 22 19:09:08 2015
#---------------------------------------------------------
:version 1.10
:name HOM
:units
  mass 1.0
  length 1.000000
  angle deg
:documentation
     Acclaim Skeleton File
:root
   axis xyz
   order TX TY TZ RX RY RZ
   position 0.000000 0.000000 0.000000
   orientation 0 0 0
:bonedata
   begin
      id 1
      name RightUpLeg_dum
      direction -1.000000 0.000000 0.000000
      length 4.478084
      axis 0.0 0.0 0.0 xyz
   end
   begin
      id 2
      name LeftUpLeg_dum
      direction 1.000000 0.000000 0.000000
      length 4.478084
      axis 0.0 0.0 0.0 xyz
   end
   begin
      id 3
      name Spine_dum
      direction 0.000000 1.000000 0.000000
      length 6.068208
      axis 0.0 0.0 0.0 xyz
   end
   begin
      id 4
      name RightUpLeg
      direction 0.000000 -1.000000 0.000000
      length 16.405774
      axis 0.0 0.0 0.0 xyz
      dof rx ry rz
   end
   begin
      id 5
      name RightLeg
      direction 0.000000 -1.000000 0.000000
      length 14.644143
      axis 0.0 0.0 0.0 xyz
      dof rx ry rz
   end
   begin
      id 6
      name RightFoot
      direction 0.000000 -0.258819 0.965926
      length 5.806150
      axis 15.0 0.0 0.0 xyz
      dof rx ry rz
   end
   begin
      id 7
      name RightToeBase
      direction 0.000000 0.000000 1.000000
      length 2.952750
      axis 0.0 0.0 0.0 xyz
      dof rx ry rz
   end
   begin
      id 8
      name LeftUpLeg
      direction 0.000000 -1.000000 0.000000
      length 16.405774
      axis 0.0 0.0 0.0 xyz
      dof rx ry rz
   end
   begin
      id 9
      name LeftLeg
      direction 0.000000 -1.000000 0.000000
      length 14.644143
      axis 0.0 0.0 0.0 xyz
      dof rx ry rz
   end
   begin
      id 10
      name LeftFoot
      direction 0.000000 -0.258819 0.965926
      length 5.806150
      axis 15.0 0.0 0.0 xyz
      dof rx ry rz
   end
   begin
      id 11
      name LeftToeBase
      direction 0.000000 0.000000 1.000000
      length 2.952750
      axis 0.0 0.0 0.0 xyz
      dof rx ry rz
   end
   begin
      id 12
      name Spine
      direction 0.000000 1.000000 0.000000
      length 0.000000
      axis 0.0 0.0 0.0 xyz
      dof rx ry rz
   end
   begin
      id 13
      name Spine_dum1
      direction 0.000000 1.000000 0.000000
      length 10.013923
      axis 0.0 0.0 0.0 xyz
   end
   begin
      id 14
      name Spine_dum2
      direction 0.000000 1.000000 0.000000
      length 10.013923
      axis 0.0 0.0 0.0 xyz
   end
   begin
      id 15
      name Spine_dum3
      direction 0.000000 1.000000 0.000000
      length 15.777476
      axis 0.0 0.0 0.0 xyz
   end
   begin
      id 16
      name RightShoulder
      direction -1.000000 0.000000 0.000000
      length 7.190220
      axis 0.0 0.0 90.0 xyz
      dof rx ry rz
   end
   begin
      id 17
      name RightArm
      direction -1.000000 0.000000 0.000000
      length 10.177469
      axis 0.0 0.0 90.0 xyz
      dof rx ry rz
   end
   begin
      id 18
      name RightForeArm
      direction -1.000000 0.000000 0.000000
      length 8.392114
      axis 0.0 0.0 90.0 xyz
      dof ry rz rx
   end
   begin
      id 19
      name RightHand
      direction -1.000000 0.000000 0.000000
      length 0.000000
      axis 0.0 0.0 90.0 xyz
      dof rx ry rz
   end
   begin
      id 20
      name RightHand_dum1
      direction -1.000000 0.000000 0.000000
      length 3.937000
      axis 0.0 0.0 90.0 xyz
   end
   begin
      id 21
      name RightHand_dum2
      direction 0.000000 0.000000 0.000000
      length 0.000000
      axis 0.0 0.0 90.0 xyz
   end
   begin
      id 22
      name RightHandThumb1
      direction 0.000000 0.000000 1.000000
      length 3.937000
      axis 0.0 0.0 90.0 xyz
      dof rx rz ry
   end
   begin
      id 23
      name LeftShoulder
      direction 1.000000 0.000000 0.000000
      length 7.190220
      axis 0.0 0.0 -90.0 xyz
      dof rx ry rz
   end
   begin
      id 24
      name LeftArm
      direction 1.000000 0.000000 0.000000
      length 10.177469
      axis 0.0 0.0 -90.0 xyz
      dof rx ry rz
   end
   begin
      id 25
      name LeftForeArm
      direction 1.000000 0.000000 0.000000
      length 8.392114
      axis 0.0 0.0 -90.0 xyz
      dof ry rz rx
   end
   begin
      id 26
      name LeftHand
      direction 1.000000 0.000000 0.000000
      length 0.000000
      axis 0.0 0.0 -90.0 xyz
      dof rx ry rz
   end
   begin
      id 27
      name LeftHand_dum1
      direction 1.000000 0.000000 0.000000
      length 3.937000
      axis 0.0 0.0 -90.0 xyz
   end
   begin
      id 28
      name LeftHand_dum2
      direction 0.000000 0.000000 0.000000
      length 0.000000
      axis 0.0 0.0 -90.0 xyz
   end
   begin
      id 29
      name LeftHandThumb1
      direction 0.000000 0.000000 1.000000
      length 3.937000
      axis 0.0 0.0 -90.0 xyz
      dof rx rz ry
   end
   begin
      id 30
      name Head
      direction 0.000000 1.000000 0.000000
      length 4.527550
      axis 0.0 0.0 0.0 xyz
      dof rx ry rz
   end
:hierarchy
   begin
      root RightUpLeg_dum LeftUpLeg_dum Spine_dum
      RightUpLeg_dum RightUpLeg
      LeftUpLeg_dum LeftUpLeg
      Spine_dum Spine
      RightUpLeg RightLeg
      RightLeg RightFoot
      RightFoot RightToeBase
      LeftUpLeg LeftLeg
      LeftLeg LeftFoot
      LeftFoot LeftToeBase
      Spine Spine_dum1 Spine_dum2 Spine_dum3
      Spine_dum1 RightShoulder
      Spine_dum2 LeftShoulder
      Spine_dum3 Head
      RightShoulder RightArm
      RightArm RightForeArm
      RightForeArm RightHand
      RightHand RightHand_dum1 RightHand_dum2
      RightHand_dum2 RightHandThumb1
      LeftShoulder LeftArm
      LeftArm LeftForeArm
      LeftForeArm LeftHand
      LeftHand LeftHand_dum1 LeftHand_dum2
      LeftHand_dum2 LeftHandThumb1
   end

# File created by Blade
# Date/Time:  Thu Jan 22 19:08:58 2015
# Frame Rate: 120.000 fps
#------------------------------------------------------
:FULLY-SPECIFIED
:DEGREES
801
root -2.212766 32.214430 -1.055583 93.732155 -81.185147 -82.247733
RightUpLeg -27.963438 34.289551 -1.282975
RightLeg 9.639212 -0.000000 -0.000000
RightFoot 3.613112 30.771573 8.799852
RightToeBase 11.353300 -0.000000 -0.000000
LeftUpLeg 4.060998 27.171753 1.345685
LeftLeg 11.262592 -0.000000 -0.000000
LeftFoot -30.990916 23.510175 -18.828103
LeftToeBase 6.126115 -0.000000 -0.000000
Spine -7.409317 -41.443628 5.473164
RightShoulder -24.378238 -27.815306 -21.058350
RightArm -0.565292 28.187465 57.725974
RightForeArm 7.321531 0.000000 9.304542
RightHand 9.387942 -0.000000 -15.771299
RightHandThumb1 -24.326973 -0.000000 -32.862282
LeftShoulder -5.122576 -12.927234 33.337355
LeftArm 51.657902 -6.841939 -44.125029
LeftForeArm 23.202488 0.000000 3.992122
LeftHand -6.364212 -0.000000 -5.190960
LeftHandThumb1 -26.253704 0.000000 33.147579
Head 5.272003 -50.248702 6.858855
802
root -2.212783 32.212738 -1.056461 93.496235 -81.186834 -82.023271
RightUpLeg -27.971815 34.291481 -1.290614
RightLeg 9.675581 -0.000000 -0.000000
RightFoot 3.582149 30.720422 8.885439
RightToeBase 11.463313 -0.000000 -0.000000
LeftUpLeg 4.081380 27.218685 1.363497
LeftLeg 11.248767 -0.000000 -0.000000
LeftFoot -30.974811 23.466072 -18.780828
LeftToeBase 6.099414 -0.000000 -0.000000
Spine -7.413181 -41.440214 5.456807
RightShoulder -24.367272 -27.804542 -21.056720
RightArm -0.548615 28.187116 57.703711
RightForeArm 7.326848 0.000000 9.234176
RightHand 9.467939 0.000000 -15.490979
RightHandThumb1 -24.326973 -0.000000 -32.862282
LeftShoulder -5.129626 -12.942570 33.314171
LeftArm 51.581379 -6.815440 -44.110596
LeftForeArm 23.207854 -0.000000 3.981489
LeftHand -6.405491 0.000000 -5.348542
LeftHandThumb1 -26.253704 0.000000 33.147579
Head 5.225704 -50.217753 6.880129
803
root -2.213025 32.209912 -1.058496 93.204311 -81.186497 -81.742601
RightUpLeg -27.982589 34.313112 -1.306142
RightLeg 9.711129 -0.000000 -0.000000
RightFoot 3.523075 30.667990 8.985614
RightToeBase 11.655139 -0.000000 -0.000000
LeftUpLeg 4.116038 27.116477 1.359788
LeftLeg 11.189327 -0.000000 -0.000000
LeftFoot -30.995990 23.475554 -18.825708
LeftToeBase 5.983420 -0.000000 -0.000000
Spine -7.414814 -41.437870 5.435715
RightShoulder -24.359215 -27.797317 -21.060360
RightArm -0.565382 28.234849 57.694244
RightForeArm 7.338746 0.000000 9.212737
RightHand 9.363862 -0.000000 -15.466597
RightHandThumb1 -24.326973 -0.000000 -32.862282
LeftShoulder -5.145742 -12.903583 33.306839
LeftArm 51.584465 -6.798122 -44.104624
LeftForeArm 23.204660 -0.000000 3.944744
LeftHand -6.463914 -0.000000 -5.371232
LeftHandThumb1 -26.253704 0.000000 33.147579
Head 5.180531 -50.203032 6.912547
804
root -2.211834 32.206289 -1.060113 92.862818 -81.189406 -81.407651
RightUpLeg -28.006622 34.342825 -1.345004
RightLeg 9.737330 -0.000000 -0.000000
RightFoot 3.493813 30.598728 9.113145
RightToeBase 11.625927 -0.000000 -0.000000
LeftUpLeg 4.129216 27.082987 1.363414
LeftLeg 11.172701 -0.000000 -0.000000
LeftFoot -31.014517 23.542345 -18.733403
LeftToeBase 6.125859 -0.000000 -0.000000
Spine -7.418336 -41.445012 5.420020
RightShoulder -24.365364 -27.811633 -21.056307
RightArm -0.561821 28.300627 57.699838
RightForeArm 7.379598 -0.000000 9.183360
RightHand 9.328675 -0.000000 -15.500883
RightHandThumb1 -24.326973 -0.000000 -32.862282
LeftShoulder -5.168244 -12.861878 33.273723
LeftArm 51.588981 -6.722718 -43.980590
LeftForeArm 23.052437 0.000000 3.933824
LeftHand -6.462648 -0.000000 -5.451407
LeftHandThumb1 -26.253704 0.000000 33.147579
Head 5.109764 -50.201291 6.946063
805
root -2.210471 32.202716 -1.061728 92.425678 -81.182027 -80.970369
RightUpLeg -28.021492 34.319492 -1.344950
RightLeg 9.780607 -0.000000 -0.000000
RightFoot 3.415570 30.547516 9.215028
RightToeBase 11.874276 -0.000000 -0.000000
LeftUpLeg 4.119358 27.048607 1.370422
LeftLeg 11.181182 -0.000000 -0.000000
LeftFoot -31.051633 23.548070 -18.692968
LeftToeBase 6.188931 -0.000000 -0.000000
Spine -7.428830 -41.460380 5.423810
RightShoulder -24.373216 -27.810880 -21.045087
RightArm -0.592918 28.341631 57.679702
RightForeArm 7.405260 -0.000000 9.150809
RightHand 9.329263 -0.000000 -15.720022
RightHandThumb1 -24.326973 -0.000000 -32.862282
LeftShoulder -5.170314 -12.879429 33.246636
LeftArm 51.555492 -6.688338 -43.945134
LeftForeArm 23.030060 -0.000000 3.952779
LeftHand -6.473046 -0.000000 -5.553355
LeftHandThumb1 -26.253704 0.000000 33.147579
Head 5.026550 -50.197522 6.986350
806
root -2.209181 32.198331 -1.062571 91.955705 -81.180770 -80.491234
RightUpLeg -28.045879 34.271015 -1.351392
RightLeg 9.832148 -0.000000 -0.000000
RightFoot 3.345423 30.513276 9.317926
RightToeBase 12.017097 -0.000000 -0.000000
LeftUpLeg 4.094628 26.972913 1.357790
LeftLeg 11.188243 -0.000000 -0.000000
LeftFoot -31.098317 23.508240 -18.747358
LeftToeBase 6.019773 -0.000000 -0.000000
Spine -7.453945 -41.499077 5.442846
RightShoulder -24.388261 -27.826074 -21.046026
RightArm -0.592993 28.361695 57.683009
RightForeArm 7.441498 -0.000000 9.125302
RightHand 9.243931 -0.000000 -15.745351
RightHandThumb1 -24.326973 -0.000000 -32.862282
LeftShoulder -5.196655 -12.851145 33.200973
LeftArm 51.558343 -6.590751 -43.802591
LeftForeArm 22.881048 -0.000000 4.002519
LeftHand -6.562554 -0.000000 -5.581598
LeftHandThumb1 -26.253704 0.000000 33.147579
Head 4.924531 -50.189052 7.026393
807
root -2.207598 32.193787 -1.063526 91.539555 -81.189429 -80.066030
RightUpLeg -28.084204 34.243020 -1.379709
RightLeg 9.894445 -0.000000 -0.000000
RightFoot 3.273992 30.475467 9.476690
RightToeBase 12.169265 -0.000000 -0.000000
LeftUpLeg 4.070023 26.830175 1.322024
LeftLeg 11.189330 -0.000000 -0.000000
LeftFoot -31.163002 23.666510 -18.703451
LeftToeBase 6.128328 -0.000000 -0.000000
Spine -7.483001 -41.527670 5.444710
RightShoulder -24.417746 -27.908804 -21.031139
RightArm -0.532363 28.372454 57.737510
RightForeArm 7.499599 0.000000 9.097259
RightHand 9.089194 -0.000000 -15.565812
RightHandThumb1 -24.326973 -0.000000 -32.862282
LeftShoulder -5.197972 -12.702965 33.141023
LeftArm 51.641777 -6.562714 -43.635037
LeftForeArm 22.744646 -0.000000 4.037194
LeftHand -6.595007 -0.000000 -5.531536
LeftHandThumb1 -26.253704 0.000000 33.147579
Head 4.848541 -50.167289 7.048590
808
root -2.206636 32.188715 -1.064225 91.167613 -81.196364 -79.689705
RightUpLeg -28.100583 34.186588 -1.387562
RightLeg 9.938390 -0.000000 -0.000000
RightFoot 3.216770 30.475454 9.643407
RightToeBase 12.295027 -0.000000 -0.000000
LeftUpLeg 4.040773 26.745258 1.300953
LeftLeg 11.226223 -0.000000 -0.000000
LeftFoot -31.218833 23.698723 -18.700555
LeftToeBase 6.053356 -0.000000 -0.000000
Spine -7.496578 -41.556076 5.438876
RightShoulder -24.390741 -27.858198 -21.047516
RightArm -0.648266 28.318606 57.671195
RightForeArm 7.537933 0.000000 9.072004
RightHand 8.917467 -0.000000 -15.613576
RightHandThumb1 -24.326973 -0.000000 -32.862282
LeftShoulder -5.203077 -12.671763 33.157511
LeftArm 51.702320 -6.751260 -43.927342
LeftForeArm 23.031155 -0.000000 3.999386
LeftHand -6.545157 -0.000000 -5.534460
LeftHandThumb1 -26.253704 0.000000 33.147579
Head 4.764505 -50.162663 7.085277
809
root -2.205835 32.183609 -1.064724 90.865183 -81.200405 -79.385710
RightUpLeg -28.118751 34.160394 -1.407999
RightLeg 9.972340 -0.000000 -0.000000
RightFoot 3.106772 30.463409 9.748301
RightToeBase 12.577942 -0.000000 -0.000000
LeftUpLeg 4.013852 26.711286 1.288240
LeftLeg 11.262922 -0.000000 -0.000000
LeftFoot -31.303029 23.691160 -18.743051
LeftToeBase 6.112162 -0.000000 -0.000000
Spine -7.510738 -41.575284 5.437720
RightShoulder -24.402704 -27.868567 -21.044746
RightArm -0.661954 28.245062 57.660234
RightForeArm 7.578048 -0.000000 9.004208
RightHand 8.856536 -0.000000 -15.526327
RightHandThumb1 -24.326973 -0.000000 -32.862282
LeftShoulder -5.190471 -12.666419 33.162736
LeftArm 51.689429 -6.744501 -43.969475
LeftForeArm 22.995352 0.000000 4.010022
LeftHand -6.476819 -0.000000 -5.468764
LeftHandThumb1 -26.253704 0.000000 33.147579
Head 4.700573 -50.135038 7.089890
810
root -2.205961 32.179455 -1.065033 90.603423 -81.197227 -79.126859
RightUpLeg -28.114187 34.117123 -1.405213
RightLeg 9.983987 -0.000000 -0.000000
RightFoot 3.093139 30.487063 9.929016
RightToeBase 12.734614 -0.000000 -0.000000
LeftUpLeg 3.990390 26.705185 1.303542
LeftLeg 11.337722 -0.000000 -0.000000
LeftFoot -31.300233 23.653631 -18.619194
LeftToeBase 6.085654 -0.000000 -0.000000
Spine -7.515943 -41.598120 5.443909
RightShoulder -24.423704 -27.862560 -21.040473
RightArm -0.672000 28.232453 57.651130
RightForeArm 7.489211 0.000000 8.926084
RightHand 8.889547 -0.000000 -15.341089
RightHandThumb1 -24.326973 -0.000000 -32.862282
LeftShoulder -5.184232 -12.798522 33.180277
LeftArm 51.576597 -6.645902 -44.017653
LeftForeArm 22.955373 0.000000 4.026333
LeftHand -6.413632 0.000000 -5.326751
LeftHandThumb1 -26.253704 0.000000 33.147579
Head 4.604287 -50.123313 7.113037
811
root -2.206422 32.175667 -1.064639 90.434605 -81.198740 -78.964929
RightUpLeg -28.097387 34.063831 -1.396644
RightLeg 9.981164 -0.000000 -0.000000
RightFoot 3.127107 30.547876 10.170064
RightToeBase 13.014013 -0.000000 -0.000000
LeftUpLeg 3.978187 26.663569 1.301837
LeftLeg 11.388047 -0.000000 -0.000000
LeftFoot -31.337623 23.653397 -18.583021
LeftToeBase 6.102718 -0.000000 -0.000000
Spine -7.523160 -41.614823 5.447355
RightShoulder -24.436951 -27.873163 -21.029367
RightArm -0.681384 28.217867 57.647927
RightForeArm 7.513492 -0.000000 8.892885
RightHand 8.744907 -0.000000 -15.345037
RightHandThumb1 -24.326973 -0.000000 -32.862282
LeftShoulder -5.169453 -12.784801 33.163107
LeftArm 51.571394 -6.632403 -44.032238
LeftForeArm 22.932024 -0.000000 4.058956
LeftHand -6.373413 -0.000000 -5.327229
LeftHandThumb1 -26.253704 0.000000 33.147579
Head 4.576027 -50.114078 7.072620
